<?xml version="1.0" encoding="UTF-8" standalone="no"?>
<!-- Created with Inkscape (http://www.inkscape.org/) -->

<svg
   width="3.2817576in"
   height="1.7654494in"
   viewBox="0 0 38.608913 20.769992"
   version="1.1"
   id="svg5"
   inkscape:version="1.2 (dc2aeda, 2022-05-15)"
   xml:space="preserve"
   xmlns:inkscape="http://www.inkscape.org/namespaces/inkscape"
   xmlns:sodipodi="http://sodipodi.sourceforge.net/DTD/sodipodi-0.dtd"
   xmlns="http://www.w3.org/2000/svg"
   xmlns:svg="http://www.w3.org/2000/svg"><sodipodi:namedview
     id="namedview7"
     pagecolor="#505050"
     bordercolor="#eeeeee"
     borderopacity="1"
     inkscape:showpageshadow="false"
     inkscape:pageopacity="0"
     inkscape:pagecheckerboard="false"
     inkscape:deskcolor="#505050"
     inkscape:document-units="in"
     showgrid="true"
     inkscape:lockguides="false" /><defs
     id="defs2" /><g
     inkscape:label="Layer 1"
     inkscape:groupmode="layer"
     id="layer1"
     transform="translate(93.414099,-50.210195)"><path
       style="fill:rgba(255, 255, 255, 0.87);stroke-width:0.0816993"
       d="m -79.828569,61.489916 v -9.490264 l -0.63317,-0.05079 c -2.180122,-0.174887 -2.830743,-0.23311 -4.187091,-0.374696 -0.831291,-0.08678 -2.201605,-0.256161 -3.045141,-0.376409 -1.787577,-0.254824 -1.631434,-0.310887 -1.96704,0.706257 -0.581158,1.761357 -0.478374,5.385462 0.189889,6.695366 0.0897,0.17583 0.193666,0.338585 0.231031,0.361678 0.03737,0.02309 0.6537,-0.04643 1.369632,-0.154508 2.645525,-0.399352 6.757763,-0.801548 6.990611,-0.683715 0.202483,0.102468 0.251567,0.319432 0.118284,0.522848 -0.10065,0.153611 -0.22126,0.19138 -0.757572,0.237233 -2.507107,0.214351 -5.040693,0.5081 -6.788517,0.787073 -0.877512,0.140061 -1.031494,0.145757 -1.225683,0.04534 -0.38668,-0.19996 -0.70035,-0.683188 -0.919389,-1.416375 l -0.103145,-0.345258 -1.314714,-0.02239 -1.314715,-0.02239 -0.112465,-0.531045 c -0.154948,-0.731649 -0.155152,-4.099432 -3.27e-4,-4.779412 l 0.111641,-0.490196 1.295992,-0.04085 1.295991,-0.04085 0.179612,-0.49647 c 0.248408,-0.686628 0.485387,-1.043019 0.809674,-1.217658 0.270291,-0.145562 0.309895,-0.144085 1.81974,0.06786 4.832448,0.678356 7.457459,0.871315 12.613696,0.927209 5.963818,0.06465 10.229287,-0.204433 15.345951,-0.968075 1.087414,-0.162292 1.19064,-0.165473 1.444309,-0.04451 0.303732,0.14484 0.649906,0.670842 0.870089,1.322078 l 0.138474,0.409564 1.170033,0.04085 1.170033,0.04085 0.11164,0.490196 c 0.15485,0.679922 0.154659,4.047733 -2.45e-4,4.779412 l -0.112447,0.531045 -1.16711,0.02269 c -0.828958,0.01611 -1.177138,0.05162 -1.20172,0.122549 -0.369229,1.065369 -0.675791,1.546364 -1.084644,1.70181 -0.128871,0.049 -0.454566,0.0335 -0.944598,-0.04495 -2.118078,-0.339077 -6.340795,-0.794038 -8.386799,-0.903606 -1.175154,-0.06293 -1.281597,-0.08527 -1.392338,-0.29219 -0.07013,-0.131042 -0.05983,-0.213747 0.04691,-0.376648 l 0.136769,-0.208735 0.910705,0.05441 c 2.758744,0.164833 5.103715,0.401766 7.732599,0.781293 1.071703,0.15472 1.625553,0.203493 1.692177,0.149015 0.140172,-0.114619 0.418977,-0.892086 0.579371,-1.615613 0.102854,-0.463966 0.13661,-1.027891 0.137098,-2.290354 7.36e-4,-1.876386 -0.12244,-2.720483 -0.512609,-3.513072 l -0.221186,-0.449346 -0.367647,0.01412 c -0.202206,0.0078 -1.057212,0.108804 -1.900012,0.224533 -3.781062,0.519197 -8.606569,0.860243 -12.21355,0.863203 l -1.327615,0.0011 v 5.533737 5.533737 l 0.898693,-0.895906 0.898693,-0.895906 0.898693,0.895906 0.898693,0.895906 0.0012,-4.900567 c 0.0013,-5.35128 -0.0022,-5.309064 0.448145,-5.309064 0.45535,0 0.446829,-0.119218 0.448142,6.270424 6.54e-4,3.224061 -0.02595,5.861928 -0.05914,5.861928 -0.03319,0 -0.639709,-0.578514 -1.347821,-1.285589 l -1.287476,-1.285589 -0.898911,0.896124 -0.898911,0.896124 v 3.309288 3.309288 l -1.328222,-1.326392 -1.328222,-1.326392 -1.327006,1.327007 -1.327007,1.327006 z m 3.594741,6.631385 0.898723,0.895936 V 60.583174 52.14911 l -0.551471,-0.0081 c -0.303308,-0.0045 -1.130571,-0.03205 -1.838361,-0.06127 l -1.28689,-0.05313 1.63e-4,8.536249 1.64e-4,8.536248 0.939512,-0.936847 0.939512,-0.936846 0.898723,0.895936 z M -90.798739,56.581299 c -0.04193,-0.303309 -0.05951,-1.259191 -0.03906,-2.124183 l 0.03718,-1.572712 h -0.844119 -0.844117 l -0.06283,0.224673 c -0.08285,0.296259 -0.08105,3.324369 0.0022,3.71732 l 0.06492,0.306373 h 0.88103 0.881031 l -0.07624,-0.551471 z m 35.131195,0.326797 c 0.08285,-0.296259 0.08105,-3.324369 -0.0022,-3.71732 l -0.06492,-0.306372 h -0.735649 -0.735648 l 0.05984,0.510621 c 0.08089,0.690197 0.08259,2.417952 0.0031,3.145424 l -0.06472,0.592321 h 0.738685 c 0.73614,0 0.738901,-7.36e-4 0.801515,-0.224674 z"
       id="path245"
       inkscape:export-filename="scroll.svg"
       inkscape:export-xdpi="96"
       inkscape:export-ydpi="96" /></g></svg>
